<?xml version="1.0" standalone="no"?>
<!DOCTYPE svg PUBLIC "-//W3C//DTD SVG 1.1//EN" "http://www.w3.org/Graphics/SVG/1.1/DTD/svg11.dtd" >
<!--
2013-9-30: Created.
-->
<svg>
<metadata>
Created by iconfont
</metadata>
<defs>

<font id="iconfont" horiz-adv-x="1024" >
  <font-face
    font-family="iconfont"
    font-weight="500"
    font-stretch="normal"
    units-per-em="1024"
    ascent="896"
    descent="-128"
  />
    <missing-glyph />
    
    <glyph glyph-name="dianchi" unicode="&#58904;" d="M202.509856 357.46176 386.743776 357.46176 386.743776 293.37792 202.509856 293.37792 202.509856 357.46176 202.509856 357.46176 202.509856 357.46176ZM637.258272 357.46176 697.336448 357.46176 697.336448 417.53984 761.425312 417.53984 761.425312 357.46176 821.492192 357.46176 821.492192 293.37792 761.425312 293.37792 761.425312 233.31104 697.336448 233.31104 697.336448 293.37792 637.258272 293.37792 637.258272 357.46176 637.258272 357.46176 637.258272 357.46176ZM677.777792 736 669.217504 641.07712 354.7784 641.07712 346.217056 736 203.372128 736 194.81184 641.07712 64 641.07712 64 42.77824 960 42.77824 960 641.07712 829.184064 641.07712 820.62272 736 677.777792 736 677.777792 736Z"  horiz-adv-x="1024" />

    
    <glyph glyph-name="gantanhao" unicode="&#58950;" d="M728.387305 384L512 758.794082 295.612695 384 79.225389 9.205917999999997l432.774611 0 432.774611 0L728.387305 384zM543.777751 79.43746899999996c-8.993838-7.992021-19.48682-11.992125-31.478945-11.992125-12.192693 0-22.836101 3.947915-31.928177 11.841699-9.097192 7.892761-13.640672 18.934235-13.640672 33.127492 0 12.389168 4.347005 22.934339 13.041014 31.628348s19.336394 13.041014 31.928177 13.041014 23.333428-4.347005 32.228005-13.041014c8.890484-8.694009 13.340843-19.23918 13.340843-31.628348C557.26902 98.42286899999999 552.772612 87.42949099999998 543.777751 79.43746899999996zM555.170219 418.756595l-12.891611-147.800207c-1.399883-17.58961-4.39817-31.080879-8.993838-40.472783-4.599761-9.397021-12.192693-14.090926-22.784936-14.090926-10.79281 0-18.287505 4.54348-22.485107 13.640672-4.197602 9.092076-7.194866 22.934339-8.993838 41.521672l-9.593496 143.602605c-1.798972 27.979238-2.698458 48.065715-2.698458 60.259432 0 16.58677 4.347005 29.529547 13.041014 38.823214s20.133549 13.9405 34.326806 13.9405c17.187451 0 28.677133-5.948479 34.476209-17.838274 5.794983-11.893888 8.694009-29.033243 8.694009-51.414997C557.26902 445.73811 556.567032 432.346101 555.170219 418.756595z"  horiz-adv-x="1024" />

    
    <glyph glyph-name="system" unicode="&#58903;" d="M965.55182 429.62206l-77.523631 18.60473a378.713344 378.713344 0 0 1-18.222014 68.208475l57.790195 54.831816c4.898567 4.65195 5.535063 13.009292 1.516539 19.968797l-29.084408 50.374294c-4.018523 6.963599-11.574616 10.594289-18.051122 8.673544l-76.480882-22.660093a383.701962 383.701962 0 0 1-49.872874 49.871851l22.661116 76.482929c1.919722 6.477528-1.711991 14.030551-8.673543 18.051121l-50.373271 29.083385c-6.963599 4.021593-15.321964 3.38612-19.970844-1.513469L644.431172 741.805152a378.750183 378.750183 0 0 1-68.204382 18.219967l-18.606776 77.527724c-1.577938 6.569626-8.499581 11.2973-16.537652 11.297301h-58.165747c-8.040117 0-14.95869-4.727675-16.536629-11.297301l-18.606776-77.528747a378.728694 378.728694 0 0 1-68.202335-18.219967l-54.835909 57.796334c-4.65195 4.898567-13.009292 5.535063-19.973914 1.51347l-50.373271-29.083386c-6.960529-4.02057-10.591219-11.573593-8.674567-18.051121l22.664186-76.485999a383.726521 383.726521 0 0 1-49.869804-49.869804l-76.483952 22.661116c-6.479575 1.920746-14.032598-1.709945-18.054191-8.673543l-29.083386-50.374295c-4.018523-6.959505-3.384074-15.31787 1.514493-19.968797l57.796335-54.836932a378.728694 378.728694 0 0 1-18.219967-68.202335L58.44511 429.62206c-6.564509-1.577938-11.294231-8.497535-11.29423-16.537651v-58.167794c0-8.037047 4.729721-14.95869 11.29423-16.536629l77.530794-18.605753a378.665249 378.665249 0 0 1 18.219967-68.204381l-57.794287-54.834886c-4.898567-4.649903-5.533017-13.008268-1.514493-19.970844l29.083385-50.374294c4.021593-6.962575 11.574616-10.591219 18.054191-8.674567l76.480882 22.663162a383.758244 383.758244 0 0 1 49.870828-49.872874l-22.662139-76.479858c-1.916653-6.477528 1.714038-14.033621 8.674566-18.054192l50.373271-29.084408c6.962575-4.0175 15.321964-3.381004 19.973914 1.517563l54.831816 57.790194a378.702088 378.702088 0 0 1 68.207451-18.222014l18.605754-77.523631c1.577938-6.567579 8.496511-11.2973 16.536628-11.2973h58.165747c8.039093 0 14.960737 4.729721 16.537652 11.2973l18.605753 77.522608a378.638643 378.638643 0 0 1 68.209498 18.222014l54.831816-57.789171c4.64888-4.898567 13.008268-5.535063 19.970844-1.517563l50.373271 29.084408c6.960529 4.02057 10.592242 11.576663 8.673543 18.054192l-22.659069 76.476788a383.677403 383.677403 0 0 1 49.874921 49.874921l76.476789-22.661116c6.476505-1.916653 14.032598 1.711991 18.051121 8.674567l29.084409 50.374294c4.02057 6.962575 3.38305 15.32094-1.51654 19.970844l-57.789171 54.830793a378.734834 378.734834 0 0 1 18.222014 68.210521l77.522607 18.603707c6.566556 1.577938 11.2973 8.499581 11.297301 16.536628v58.167794c-0.001023 8.039093-4.731768 14.95869-11.298324 16.536628z m-453.549773 204.607005c56.201 0 108.074438-18.530029 149.845796-49.811476l-94.846158-94.846158c-16.451694 8.588609-35.156708 13.450337-54.999638 13.450336-65.735144 0-119.023814-53.28867-119.023814-119.023814 0-19.84293 4.862751-38.548968 13.450336-54.999638l-94.846158-94.846158c-31.281447 41.771359-49.811476 93.644797-49.811476 149.84682 0 138.196479 112.033609 250.230088 250.231112 250.230088z m0-500.462223c-56.205093 0-108.080577 18.532075-149.85296 49.816592l94.846158 94.845135c16.452717-8.590656 35.160801-13.45443 55.007825-13.454429 65.735144 0 119.023814 53.287647 119.023814 119.023813 0 19.846-4.863774 38.553061-13.453407 55.005778l94.846158 94.845135c31.283494-41.772382 49.815569-93.647867 49.81557-149.850913-0.002047-138.197502-112.035656-250.231111-250.233158-250.231111z"  horiz-adv-x="1024" />

    
    <glyph glyph-name="yongdianliang" unicode="&#58884;" d="M621.774 541.479l-140.832-75.245a98.817 98.817 0 0 1-9.129-4.877l-0.02-0.011v-0.001c-28.652-17.323-47.811-48.773-47.811-84.689 0-54.607 44.288-98.896 98.895-98.896 46.551 0 85.595 32.186 96.105 75.509a0.025 0.025 0 0 0 0.002-0.007L659.5 518.5c4.162 45.285-37.726 22.979-37.726 22.979z m-98.896-197.782c-18.153 0-32.958 14.816-32.958 32.958 0 18.207 14.806 32.969 32.958 32.969 18.196 0 32.958-14.762 32.958-32.969 0-18.141-14.762-32.958-32.958-32.958zM511.893 893c-171.551 0-298.47-75.647-382.432-176.646C45.5 615.344 4.389 489.037 4.389 387.652c0-188.298 115.596-311.132 132.36-327.982 0.284-0.304 0.565-0.609 0.862-0.906a35.043 35.043 0 0 1 24.847-10.321c9.013 0 17.981 3.444 24.869 10.321l82.845 82.856c13.732 13.764 13.732 36.016 0 49.727a35 35 0 0 1-24.847 10.321c-8.99 0-17.981-3.443-24.869-10.321l-59.327-59.335c-28.981 37.086-76.855 111.77-88.298 211.686h98.472c18.217 0 32.98 14.763 32.98 32.958 0 18.207-14.763 32.969-32.98 32.969H71.031c5.18 79.929 37.938 167.451 89.19 238.835l59.223-59.225c6.438-6.436 14.87-9.654 23.304-9.654 8.432 0 16.865 3.218 23.302 9.654 12.874 12.875 12.874 33.742 0 46.617l-63.427 63.443c54.875 56.686 140.371 114.667 265.325 125.873v-96.947c0-18.196 14.763-32.958 32.958-32.958s32.958 14.762 32.958 32.958V826.634c121.037-5.274 214.789-53.975 282.686-121.592l-73.78-76.508c-12.596-13.099-12.596-34.245 0-47.334 6.265-6.556 14.547-9.828 22.83-9.828 8.238 0 16.479 3.272 22.786 9.828l71.318 73.955c61.218-82.134 91.901-180.078 93.924-261.741h-98.165c-17.81 0-32.25-14.977-32.25-33.463 0-18.474 14.44-33.462 32.25-33.462h94.776c-10.853-89.955-44.688-155.839-67.892-191.868l-56.008 58.112c-6.694 6.932-15.535 10.428-24.332 10.428-8.798 0-17.595-3.496-24.333-10.428-13.433-13.989-13.433-36.573 0-50.499l81.087-84.134c6.78-6.994 15.535-10.492 24.375-10.492 8.805 0 17.543 3.487 24.255 10.458l0.019-0.018s112.2 119.711 112.2 326.771C1019.61 591.871 855.014 893 511.893 893z"  horiz-adv-x="1024" />

    
    <glyph glyph-name="yunyingguanli" unicode="&#58895;" d="M213.658 458.003c52.846 0 104.248 27.428 132.57 76.482 29.393 50.909 25.563 111.357-3.767 157.844 49.493 33.278 108.155 52.466 169.641 52.466 34.263 0 68.104-6.469 100.388-17.778 14.231 24.24 32.394 44.643 52.998 61.43-48.359 21.279-100.549 32.819-153.386 32.819-82.916 0-161.953-27.591-226.66-75.525-22.767 12.11-47.25 18.144-71.5 18.144-52.846-0.002-104.248-27.428-132.57-76.482-42.228-73.14-17.169-166.66 55.971-208.886 24.082-13.907 50.371-20.514 76.315-20.514zM588.222 227.391c-24.084 13.904-50.37 20.513-76.316 20.513-52.844-0.002-104.248-27.428-132.57-76.484-1.069-1.851-1.592-3.841-2.574-5.718-5.937 2.889-12.17 5.048-17.918 8.366-79.971 46.17-130.955 123.312-147.095 207.591-27.517 0.189-54.048 5.428-79.383 15.167 13.094-116.656 79.012-225.924 188.242-288.997 12.513-7.223 25.519-13.337 38.716-18.964 2.072-50.618 28.865-99.128 75.983-126.332 24.084-13.904 50.37-20.511 76.314-20.511 52.846 0 104.251 27.428 132.572 76.482 42.226 73.138 17.167 166.661-55.971 208.887zM886.656 743.372c-24.081 13.904-50.37 20.513-76.314 20.513-52.846-0.002-104.248-27.428-132.57-76.482-42.228-73.14-17.169-166.66 55.971-208.886 24.081-13.906 50.37-20.513 76.314-20.513 1.932 0 3.834 0.301 5.762 0.373 4.11-58.219-7.86-118.066-39.208-172.366-17.461-30.242-40.161-56.317-65.997-78.463 9.426-16.705 17.552-34.221 22.646-53.234a233.482 233.482 0 0 0 4.88-22.779c41.913 30.807 77.962 69.915 104.71 116.241 42.422 73.481 57.185 155.249 48.177 233.665 20.618 12.84 38.609 30.541 51.6 53.045 42.229 73.14 17.17 166.66-55.971 208.886z"  horiz-adv-x="1024" />

    
    <glyph glyph-name="shebeiguanli" unicode="&#58893;" d="M827.076923 265.846154v-118.153846h78.769231v196.923077h-354.461539v118.153846h-78.76923v-118.153846H118.153846v-196.923077h78.769231v118.153846h275.692308v-118.153846h78.76923v118.153846h275.692308zM315.076923 501.956923v315.470769c0 21.267692 17.565538 39.187692 39.187692 39.187693h315.47077c21.267692 0 39.187692-17.565538 39.187692-39.187693v-315.470769c0-21.267692-17.565538-39.187692-39.187692-39.187692h-315.47077c-21.267692 0-39.187692 17.565538-39.187692 39.187692z m433.230769-551.542154v158.247385c0 21.267692 17.486769 39.030154 38.99077 39.030154h158.326153c21.228308 0 38.990769-17.486769 38.99077-38.99077v-158.326153c0-21.228308-17.486769-38.990769-38.99077-38.99077h-158.326153a39.227077 39.227077 0 0 0-38.99077 38.99077z m-354.461538 0v158.247385c0 21.267692 17.486769 39.030154 38.990769 39.030154h158.326154c21.228308 0 38.990769-17.486769 38.990769-38.99077v-158.326153c0-21.228308-17.486769-38.990769-38.990769-38.99077h-158.326154a39.227077 39.227077 0 0 0-38.990769 38.99077z m-354.461539 0v158.247385c0 21.267692 17.486769 39.030154 38.99077 39.030154h158.326153c21.228308 0 38.990769-17.486769 38.99077-38.99077v-158.326153c0-21.228308-17.486769-38.990769-38.99077-38.99077H78.375385a39.227077 39.227077 0 0 0-38.99077 38.99077z"  horiz-adv-x="1024" />

    
    <glyph glyph-name="keliutongji" unicode="&#59147;" d="M594.432 875.52l61.952-57.856-185.856-162.816-123.904 100.864L141.312 558.08l43.008-38.912 166.4 158.72 123.904-100.352 228.352 197.12L760.832 716.8V875.52zM721.408 54.784c-32.768 73.728-102.912 106.496-180.224 136.192 3.584 7.168 7.168 10.752 10.752 18.432 34.816 45.568 55.296 100.864 58.88 158.208 7.68 66.56-18.432 132.608-69.632 176.128 18.944 40.448 48.128 73.728 107.008 77.312 80.896 3.584 124.928-48.128 132.608-114.176 9.728-59.904-6.144-121.344-44.032-168.96-3.584-7.168-10.752-10.752-14.848-18.432-3.584-10.752-3.584-22.528 0-32.768 7.168-10.752 32.768-18.432 47.616-25.088 18.432-7.168 32.768-14.848 47.616-22.016 29.184-14.848 62.976-36.864 73.728-66.048 7.168-23.552 4.096-48.64-7.168-69.632-26.112-37.888-103.424-41.984-162.304-49.152zM162.816-8.192v25.088c0.512 7.68 3.072 15.36 7.168 22.016 14.848 29.184 44.032 47.616 69.632 66.048 22.016 10.752 44.032 22.016 69.632 32.768 7.168 3.584 18.432 7.168 25.088 10.752 10.752 10.752 25.088 40.448 14.848 62.976-3.584 7.168-8.704 13.312-14.848 18.432-41.472 47.616-61.44 110.08-55.296 172.544C286.72 476.16 334.848 527.36 415.744 527.36s128.512-51.2 139.776-124.928c2.56-37.888-3.584-75.776-18.432-110.592-9.216-22.528-21.504-44.032-36.864-62.976-3.584-7.168-10.752-10.752-14.848-18.432-5.632-20.992-3.072-43.52 7.168-62.976 3.584-7.168 18.432-7.168 29.184-10.752 44.032-16.384 84.992-39.936 121.344-69.632 14.848-12.288 25.088-29.184 29.184-47.616v-36.864c-10.752-40.448-62.976-51.2-110.08-62.976-92.672-14.848-186.88-14.848-279.552 0-40.448 7.168-84.48 18.432-106.496 44.032-6.144 6.144-9.728 14.336-13.312 28.16z"  horiz-adv-x="1024" />

    
    <glyph glyph-name="shipinjiankong" unicode="&#59077;" d="M1023.652588-20.388097l-79.129199-0.230244-0.249687 143.730519-187.484021-0.291642c17.927301 31.892361 19.260669 71.79107 0.333597 105.935727l186.983626 0.291643-0.249687 134.411269 79.087243 0.146332 0.708128-383.993604zM607.077937 228.401176c-29.309536-28.848025-29.475312-75.856665-0.375553-104.872512 29.184693-29.057803 76.628238-29.182646 106.019638-0.333598 29.309536 28.892027 29.434379 75.836199 0.249687 104.978936-29.140691 28.994358-76.543304 29.057803-105.893772 0.227174z m-18.301831 543.91999c-21.846564 21.658276-57.366545 21.742187-79.212086 0.166799L66.139861 334.192617c-21.887496-21.574365-21.887496-56.616462-0.083911-78.399581L208.681298 114.398726c21.846564-21.595854 57.241702-21.721721 79.171154-0.083911l190.94382 188.838879 80.713277-80.358189c5.337565 11.340279 12.674671 22.013363 22.180161 31.309076 9.296737 9.235338 19.928888 16.343223 31.227212 21.596877l-80.672344 80.211857L731.193723 552.611186c21.929452 21.575388 21.929452 56.658418 0.082887 78.316693L588.776106 772.321166zM46.294884 224.254739l-38.355563-38.148855 22.054295-21.948894-25.722848-25.786293c-5.252631-5.378497-5.252631-14.028505 0.124844-19.26067l78.586846-76.64768c5.377474-5.316076 14.09195-5.232165 19.427468 0.146332l25.181519 25.284873 18.593474-18.385742 38.355563 38.147831L46.294884 224.254739z m0 0"  horiz-adv-x="1024" />

    
    <glyph glyph-name="xinxiguanli" unicode="&#59083;" d="M126.4 556.8c3.2-3.2 8-4.8 12.8-4.8h744c12.8 0 24 9.6 24 24 0 4.8-1.6 9.6-4.8 12.8l-16 24c-6.4 8-16 12.8-25.6 12.8H163.2c-9.6 0-20.8-4.8-25.6-12.8l-16-24c-8-9.6-6.4-24 4.8-32zM195.2 673.6h633.6c4.8 0 8 1.6 11.2 3.2 8 6.4 9.6 19.2 3.2 27.2l-14.4 17.6c-6.4 8-16 12.8-25.6 12.8H219.2c-9.6 0-19.2-4.8-25.6-12.8l-14.4-17.6c-3.2-3.2-3.2-8-3.2-11.2 0-9.6 8-19.2 19.2-19.2zM928 505.6H96c-17.6 0-32-14.4-32-32v-412.8c0-17.6 14.4-32 32-32h832c17.6 0 32 14.4 32 32V473.6c0 17.6-14.4 32-32 32z m-686.4-100.8c38.4 0 70.4-32 70.4-70.4 0-38.4-32-70.4-70.4-70.4-38.4 0-70.4 32-70.4 70.4 0 40 30.4 70.4 70.4 70.4z m593.6-264H193.6c-12.8 0-24 11.2-24 24s11.2 24 24 24h641.6c12.8 0 24-11.2 24-24s-11.2-24-24-24z m0 171.2H393.6c-12.8 0-24 11.2-24 24s11.2 24 24 24h441.6c12.8 0 24-11.2 24-24s-11.2-24-24-24z"  horiz-adv-x="1024" />

    
    <glyph glyph-name="xitongshouye" unicode="&#58908;" d="M911.36 322.56c-13.653333-13.653333-37.546667-13.653333-51.2 0L512 674.133333 163.84 322.56c-13.653333-13.653333-37.546667-13.653333-51.2 0-13.653333 13.653333-13.653333 37.546667 0 51.2l375.466667 378.88c13.653333 13.653333 37.546667 13.653333 51.2 0l375.466666-378.88c10.24-17.066667 10.24-37.546667-3.413333-51.2z m-716.8-37.546667l293.546667 293.546667c13.653333 13.653333 37.546667 13.653333 51.2 0l283.306666-286.72 6.826667-10.24v-238.933333c0-20.48-17.066667-34.133333-34.133333-34.133334h-139.946667c-20.48 0-34.133333 17.066667-34.133333 34.133334v105.813333c0 20.48-17.066667 34.133333-34.133334 34.133333h-139.946666c-20.48 0-34.133333-17.066667-34.133334-34.133333V42.666667c0-20.48-17.066667-34.133333-34.133333-34.133334H228.693333c-20.48 0-34.133333 17.066667-34.133333 34.133334v232.106666"  horiz-adv-x="1024" />

    
    <glyph glyph-name="icon-test" unicode="&#58986;" d="M713.136-7.486999999999966H310.842c-16.77 0-30.358-12.063-30.358-26.95 0-14.878 13.587-26.961 30.358-26.961h402.305c16.77 0 30.38 12.083 30.38 26.961 0 14.898-13.61 26.961-30.39 26.95z m-381.36 491.194h360.435c15.303 0 27.728 11.03 27.728 24.626h-0.012v79.99c0 13.575-12.426 24.607-27.728 24.607H331.773c-15.303 0-27.727-11.03-27.727-24.607v-79.99c0-13.596 12.423-24.626 27.727-24.626zM537.719 782.79V813.287c0 8.897-11.522 16.11-25.719 16.11s-25.73-7.213-25.73-16.11V782.8c-81.355-11.03-143.728-73.229-143.728-148.518h338.927c0 75.281-62.407 137.478-143.75 148.51zM318.505 357.22900000000004h-70.69c-10.462 0-18.959-7.545-18.959-16.832v-140.134c0-9.297 8.497-16.822 18.959-16.822h70.69V357.22799999999995z m457.67 0h-70.69v-173.787h70.69c10.462 0 18.959 7.524 18.959 16.822V340.398c0 9.287-8.497 16.832-18.959 16.832z m-94.717-343.375V462.398H342.531v-448.544h338.927zM512 357.22900000000004c54.045 0 97.877-38.913 97.877-86.893 0-48.001-43.833-86.893-97.877-86.893-54.054 0-97.877 38.893-97.877 86.893 0 47.98 43.821 86.893 97.877 86.893zM445.462 270.336c0-32.619 29.785-59.06 66.525-59.06 36.741 0 66.525 26.443 66.525 59.06 0 32.619-29.785 59.06-66.525 59.06-36.741 0-66.525-26.443-66.525-59.06z m-309.765 38.623h69.155v-77.245h-69.155z m683.429 0h69.178v-77.245h-69.178z"  horiz-adv-x="1024" />

    
    <glyph glyph-name="jienengguanli" unicode="&#59060;" d="M255.6 616.6c54.8-31.5 109.7-62.9 164.5-94.3l112.3 157.5c-10.5 19.9-21.4 39.6-32.8 59-14.5 21.6-42.4 59.5-71.2 64.3l-8.7 0.5-12.4-0.1c-11.7-2.4-21.1-7.4-28.3-15.2-58.4-57.2-94.1-114.4-123.4-171.7z m243.6-61.3L752 531.1l106.4 231-88-50.7c-24 48.7-54.5 89.1-100.7 109.9l-249.2-1.2c32.9 1.2 63.5-28.6 93.1-72.6 26.4-45.2 51.1-92.1 72.7-142.1l-87.1-50.1z m362.4-22.7c-54.3-32.4-108.6-64.8-162.8-97.2L707 418l0.9 1.4v-3.4l64.9-138.3c26.2-1 52.5-1.1 78.7-0.7 27.3 2.2 77.9 8.4 93.7 34.4l1.5 2.7 6.3 11.4c0.1 5.3-0.7 10.4-2.2 15.3-21.3 79-53.7 138.2-89.2 191.8zM691.8 367.3l-145-208.5 149.2-206-1 101.5c54.2-3 104.4 3.8 145.2 33.9 40.3 72.6 80.7 145.2 121 217.8-15-29.2-56.1-41.3-108.9-45.6-52.4-0.8-105.3 0.5-159.5 6.3l-1 100.6zM524.1 55.9c-5.8 62.9-11.7 125.9-17.5 188.8L323.4 246c-11.4-21.9-22.1-44.1-32.4-66.5-9.7-25.6-26-73.9-9.3-99.4 0.6-0.9 1.2-1.7 1.8-2.5l7.9-11.1c6.6-4.6 13.7-7.4 21.3-8.4 80.4-14.9 147.7-11.1 211.4-2.2z m-82.8 228.8L315.7 505.3 65.5 459.5l92-42.8c-26-47.6-41.5-95.8-31.9-145.6C173.7 203.4 221.8 135.7 270 68c-19.9 26.2-13.1 68.4 5.8 117.9 21.8 47.6 45.9 94.8 74.4 141.2l91.1-42.4z m0 0"  horiz-adv-x="1024" />

    
    <glyph glyph-name="transformer" unicode="&#59178;" d="M314.14 594.1859999999999c-15.492 0-27.985-12.494-27.985-27.985v-391.796c0-15.492 12.493-27.986 27.985-27.986 15.491 0 27.985 12.494 27.985 27.986V566.2c0 15.492-12.494 27.986-27.985 27.986z m195.897 0c-15.492 0-27.986-12.494-27.986-27.985v-391.796c0-15.492 12.494-27.986 27.986-27.986s27.985 12.494 27.985 27.986V566.2c0 15.492-12.493 27.986-27.985 27.986z m195.898 0c-15.492 0-27.986-12.494-27.986-27.985v-391.796c0-15.492 12.494-27.986 27.986-27.986 15.491 0 27.985 12.494 27.985 27.986V566.2c0 15.492-12.494 27.986-27.985 27.986zM896.686 609.495v95.941c0 30.883-34.086 62.971-64.969 62.971h-39.972V803.392c0 15.492-12.493 27.985-27.984 27.985-15.493 0-27.986-12.494-27.986-27.985v-34.985h-111.94V803.392c0 15.492-12.494 27.985-27.987 27.985-15.491 0-27.984-12.494-27.984-27.985v-34.985H455.921V803.392c0 15.492-12.494 27.985-27.985 27.985S399.95 818.884 399.95 803.392v-34.985H288.008V803.392c0 15.492-12.494 27.985-27.985 27.985s-27.985-12.494-27.985-27.985v-34.985h-48.971c-30.883 0-55.971-32.087-55.971-62.971v-97.941c-30.884 0-62.971-25.087-62.971-55.971V214.70000000000005c0-30.885 32.087-55.972 62.971-55.972v-93.94c0-30.884 25.087-65.971 55.971-65.971h48.971c0-30.885 25.087-61.972 55.971-61.972h167.913c30.884 0 55.971 31.087 55.971 61.972h55.971c0-30.885 25.086-61.972 55.972-61.972h167.911c30.884 0 55.972 31.087 55.972 61.972 30.883 0 48.969 35.087 48.969 65.971v93.94c30.886 0 62.972 25.087 62.972 55.972V553.523c-0.003 30.885-32.089 55.972-62.974 55.972z m0-394.796h-63.969v-149.912h-47.972v-65.971H637.834v65.971H449.921v-65.971H301.008v65.971H193.067V214.69899999999996h-65.971V551.523h63.971V705.436h640.65v-151.913h64.969v-338.824z"  horiz-adv-x="1024" />

    
    <glyph glyph-name="-anfangshebei" unicode="&#58966;" d="M853.022089 742.400077C701.982164 742.400077 557.598236 878.080009 557.598236 878.080009a67.071966 67.071966 0 0 1-91.647954 0C460.830285 874.496011 322.078354 742.400077 171.03843 742.400077A70.143965 70.143965 0 0 1 102.430464 668.672114v-219.647891c0-201.727899 111.615944-368.127816 370.175815-563.199718A62.463969 62.463969 0 0 1 512.030259-127.999488a91.647954 91.647954 0 0 1 39.42398 14.335993c258.559871 194.559903 370.175815 358.399821 370.175815 563.199718V668.672114A71.679964 71.679964 0 0 1 853.022089 742.400077zM716.830157 399.360248H551.454239v-163.327918H469.022281V399.360248H307.230362V482.816207h161.791919V645.632125h82.431958v-162.815918H716.830157z"  horiz-adv-x="1024" />

    
    <glyph glyph-name="shidu" unicode="&#58957;" d="M738.844 54.42c-113.108 0-204.8 91.692-204.8 204.8 0 163.161 143.268 310.37 190.135 354.163 0.137-0.137 0.289-0.259 0.431-0.393a19.936 19.936 0 0 0 29.2 0.292C800.981 569.713 943.644 424.3 943.644 259.22c0-113.108-91.692-204.8-204.8-204.8z m14.076 476.424c-0.021-0.02-0.044-0.036-0.065-0.056a16.955 16.955 0 0 1-27.02 0c-0.15 0.138-0.311 0.264-0.457 0.406C689.331 491.349 593.349 374.48 593.349 259.8c0-80.244 65.141-145.294 145.5-145.294S884.344 179.557 884.344 259.8c0 116.98-94.925 231.377-131.424 271.044z m5.424-367.344h-4a110 110 0 0 0-105.54 141h0.471a29.5 29.5 0 0 0 57.069-10.5c0-2.724-2-9.086-2-20.5a50 50 0 0 1 50-50c1.348 0 2.679 0.069 4 0.174v-0.174a30 30 0 0 0 0-60z m-358-43a140.354 140.354 0 0 1 29 3.033v-0.184c0.987 0.1 1.987 0.151 3 0.151a29.984 29.984 0 0 0 4-59.7v-0.059a201.146 201.146 0 0 0-36-3.241c-110.457 0-200 89.543-200 200a200.472 200.472 0 0 0 5.225 45.528 29.982 29.982 0 1 0 59.325-8.528h0.4a140.077 140.077 0 0 1 135.05-177z m173 443a29.95 29.95 0 0 0-25.286 13.9c-0.121-0.157-0.255-0.3-0.368-0.466-51.356 75.812-106.381 131.477-132.256 156.466-0.14-0.161-0.3 0.695-0.445 0.538a17.964 17.964 0 0 1-29.292 0c-0.088 0.095-0.187 0.18-0.274 0.278C330.176 679.636 140.344 476.4 140.344 260.5c0-143.594 116.406-260 260-260a258.778 258.778 0 0 1 147.6 45.952 29.972 29.972 0 1 0 38.88-45.552c0.069-0.094 0.131-0.193 0.2-0.285a318.466 318.466 0 0 0-186.68-60.115c-176.731 0-320 143.269-320 320 0 264.941 241.8 503 305.017 560.713 0.08-0.078 0.169-0.145 0.249-0.222a19.931 19.931 0 0 0 28.46 1.029c0.085 0.093 0.181 0.177 0.265 0.272 31.707-28.469 111.748-104.84 182.017-209.046l-0.22-0.266a29.977 29.977 0 0 0-22.788-49.48z"  horiz-adv-x="1024" />

    
    <glyph glyph-name="dian" unicode="&#58885;" d="M807.499 504.091l-209.938 0.55 38.536 262.046s7.708 50.648-38.536 35.234L187.975 324.07s-7.707-37.436 27.526-31.931l186.075-0.549-87.257-294.89s-7.707-50.646 38.536-35.233l482.169 510.694s7.708 37.434-27.525 31.93z"  horiz-adv-x="1024" />

    
    <glyph glyph-name="gengduo" unicode="&#59242;" d="M512 896C229.376 896 0 666.624 0 384s229.376-512 512-512 512 229.376 512 512S794.624 896 512 896z m0-962.56c-248.832 0-450.56 201.728-450.56 450.56s201.728 450.56 450.56 450.56 450.56-201.728 450.56-450.56-201.728-450.56-450.56-450.56zM286.72 384m-61.44 0a61.44 61.44 0 1 1 122.88 0 61.44 61.44 0 1 1-122.88 0ZM512 384m-61.44 0a61.44 61.44 0 1 1 122.88 0 61.44 61.44 0 1 1-122.88 0ZM742.4 384m-61.44 0a61.44 61.44 0 1 1 122.88 0 61.44 61.44 0 1 1-122.88 0Z"  horiz-adv-x="1024" />

    
    <glyph glyph-name="huiluguanxi" unicode="&#59080;" d="M911.36 179.2H819.2v81.92c0 10.24-10.24 20.48-20.48 20.48h-261.12v102.4h-51.2v-102.4H225.28c-10.24 0-20.48-10.24-20.48-20.48V179.2H112.64c-5.12 0-10.24-5.12-10.24-10.24v-133.12c0-5.12 5.12-10.24 10.24-10.24h184.32c5.12 0 10.24 5.12 10.24 10.24v133.12c0 5.12-5.12 10.24-10.24 10.24H256v51.2h230.4v-51.2H419.84c-5.12 0-10.24-5.12-10.24-10.24v-133.12c0-5.12 5.12-10.24 10.24-10.24h184.32c5.12 0 10.24 5.12 10.24 10.24v133.12c0 5.12-5.12 10.24-10.24 10.24h-66.56v51.2H768v-51.2h-40.96c-5.12 0-10.24-5.12-10.24-10.24v-133.12c0-5.12 5.12-10.24 10.24-10.24h184.32c5.12 0 10.24 5.12 10.24 10.24v133.12c0 5.12-5.12 10.24-10.24 10.24zM409.6 793.6H358.4v-332.8c0-15.36 10.24-25.6 25.6-25.6H512V486.4H409.6V793.6zM665.6 486.4V793.6h-51.2l-56.32-51.2v-61.44l56.32 51.2V486.4h-51.2v-51.2h153.6V486.4z"  horiz-adv-x="1024" />

    
    <glyph glyph-name="renliu" unicode="&#58925;" d="M385.385412 272.624941c11.143529 4.096 24.696471 8.071529 40.779294 18.070588 23.431529 14.637176 41.441882 44.935529-2.048 82.100706-144.203294 207.088941-91.617882 344.606118-69.812706 396.348236-18.311529 7.168 21.263059 11.264-2.650353 11.264h-7.529412c-137.938824 0-174.561882-124.928-177.27247-195.162353-1.927529-165.285647 99.568941-231.183059 99.568941-231.183059s6.384941-8.734118 6.384941-33.972706c0-5.722353-3.855059-23.009882-10.24-28.129882-56.500706-45.718588-245.579294-93.364706-258.650353-191.789177-7.047529-28.431059-2.891294-57.946353-1.445647-85.413647a539.708235 539.708235 0 0 1 69.752471-43.670588s8.252235 24.937412 16.564706 66.017882c12.107294 61.018353 94.750118 159.442824 296.598588 235.52z m935.755294-171.489882c-13.552941 98.243765-207.570824 145.889882-265.577412 191.488-6.686118 5.240471-10.480941 22.407529-10.480941 28.129882 0 25.238588 6.324706 33.792 6.324706 33.792s104.026353 65.716706 102.098823 230.881883c-2.831059 70.053647-46.622118 194.981647-181.729882 194.981647h-7.649882c-29.153882 0 6.746353-5.541647-14.336-14.576942 28.852706-96.376471 63.608471-273.468235-82.462118-392.071529-57.344-85.293176 133.601882-135.107765 103.966118-121.795765 172.694588-77.462588 219.196235-136.854588 231.966117-198.174117 10.480941-51.260235 16.564706-82.582588 16.564706-82.582589s69.270588 19.696941 102.701177 44.815059c1.445647 27.166118 5.782588 56.681412-1.385412 85.112471z m-563.621647 188.596706c-8.131765 6.565647-12.890353 28.009412-12.890353 34.93647 0 31.322353 7.770353 42.104471 7.770353 42.104471-0.120471-0.180706 127.759059 68.909176 125.229176 286.960941C874.134588 740.713412 820.464941 896 654.637176 896h-9.396705c-173.477647 0-219.497412-155.105882-223.051295-242.266353-2.349176-205.342118 125.229176-286.960941 125.229177-286.960941s15.420235-17.648941 15.420235-48.911059c0-7.107765-12.227765-21.744941-20.359529-28.129882-71.198118-56.681412-327.499294-113.844706-344.064-236.062118-12.890353-51.802353-88.907294-134.023529 164.080941-167.213176 69.752471-9.095529 164.382118-14.456471 292.261647-14.456471 586.872471 0 465.498353 113.362824 449.054118 179.742118-16.685176 122.277647-275.094588 181.308235-346.292706 237.989647z"  horiz-adv-x="1325" />

    
    <glyph glyph-name="distributing" unicode="&#59274;" d="M436.475-61.13599999999997a30.648 30.648 0 0 0-14.986 3.916c-15.019 8.379-20.473 27.477-12.18 42.654l214.259 392.168-233.3-0.032c-10.727-0.002-20.697 5.59-26.37 14.793a31.68 31.68 0 0 0-1.515 30.441L553.55 816.042c7.565 15.563 26.18 21.979 41.58 14.334 15.399-7.645 21.749-26.457 14.185-42.017L440.139 440.362l236.063 0.032c10.993 0.002 21.168-5.867 26.756-15.434a31.676 31.676 0 0 0 0.444-31.131L463.697-44.90999999999997c-5.664-10.367-16.279-16.225-27.222-16.226M582.638-56.190000000000055c-14.874 0-28.016 10.827-30.591 26.145-2.871 17.092 8.514 33.302 25.43 36.202 185.943 31.897 320.907 193.631 320.912 384.564 0.005 149.656-82.508 283.73-215.342 349.903-15.388 7.665-21.711 26.486-14.125 42.037 7.586 15.551 26.205 21.943 41.597 14.276 75.107-37.416 138.183-95.173 182.405-167.03 44.223-71.856 67.598-154.566 67.595-239.187-0.002-54.781-9.586-108.345-28.486-159.199-18.258-49.125-44.672-94.367-78.508-134.471-68.207-80.841-162.552-135.105-265.652-152.791a30.85 30.85 0 0 0-5.235-0.449m-268.597 44.775a30.674 30.674 0 0 0-14.749 3.784c-56.955 31.126-107.52 75.334-146.224 127.847-39.42 53.483-66.167 113.724-79.502 179.045-12.22 59.871-12.468 120.387-0.736 179.868 11.329 57.435 33.292 111.468 65.283 160.596 31.99 49.13 72.402 90.895 120.117 124.133 49.414 34.424 104.509 58.14 163.754 70.488 16.804 3.508 33.232-7.423 36.699-24.403s-7.347-33.583-24.149-37.087c-208.49-43.457-343.124-250.221-300.12-460.913 23.082-113.085 93.949-209.437 194.43-264.348 15.091-8.247 20.71-27.296 12.548-42.547-5.621-10.501-16.31-16.463-27.351-16.463"  horiz-adv-x="1024" />

    
    <glyph glyph-name="elevator" unicode="&#59275;" d="M194.355-29.409999999999968c0-18.231-14.716-32.946-32.947-32.946h-5.162c-18.23 0-32.947 14.715-32.947 32.946V816.55c0 18.23 14.716 32.947 32.947 32.947h5.162c18.231 0 32.947-14.716 32.947-32.947v-845.96zM898.425-29.409999999999968c0-18.231-14.715-32.946-32.946-32.946h-5.161c-18.23 0-32.946 14.715-32.946 32.946V816.55c0 18.23 14.716 32.947 32.946 32.947h5.161c18.231 0 32.946-14.716 32.946-32.947v-845.96zM756.754 77.22799999999995c0-18.23-14.714-32.947-32.946-32.947h-426.22c-18.23 0-32.947 14.717-32.947 32.947V713.7570000000001c0 18.23 14.716 32.947 32.947 32.947h426.219c18.232 0 32.946-14.717 32.946-32.947v-636.529z m-70.286 594.796c0 3.075-2.415 5.491-5.491 5.491H339.98c-3.076 0-5.491-2.417-5.491-5.491v-552.406c0-3.074 2.416-5.491 5.491-5.491h340.997c3.076 0 5.491 2.417 5.491 5.491V672.024zM585.98 485.875c-12.849-12.849-33.715-12.849-46.563 0l-54.911 54.911c-12.849 12.849-12.849 33.715 0 46.564l2.965 2.965c12.849 12.849 33.714 12.849 46.564 0l54.912-54.911c12.848-12.849 12.848-33.715 0-46.565l-2.967-2.964zM532.938 590.317c-12.849 12.849-33.715 12.849-46.564 0l-54.911-54.911c-12.851-12.85-12.851-33.716 0-46.565l2.966-2.965c12.848-12.849 33.714-12.849 46.563 0l54.91 54.911c12.849 12.849 12.849 33.715 0 46.564l-2.964 2.966zM434.426 299.836c12.85 12.851 33.716 12.851 46.565 0l54.91-54.911c12.852-12.849 12.852-33.715 0-46.563l-2.964-2.967c-12.85-12.849-33.716-12.849-46.564 0l-54.911 54.911c-12.849 12.851-12.849 33.717 0 46.564l2.964 2.966zM487.47 195.39599999999996c12.85-12.849 33.715-12.849 46.565 0l54.912 54.911c12.848 12.851 12.848 33.717 0 46.564l-2.967 2.965c-12.849 12.851-33.715 12.851-46.563 0l-54.911-54.911c-12.849-12.849-12.849-33.715 0-46.563l2.964-2.966z"  horiz-adv-x="1024" />

    
    <glyph glyph-name="withered" unicode="&#59277;" d="M511.4 1.6000000000000227c-212.2 0-382.8 170.7-382.8 382.801 0 212.1 170.699 382.8 382.8 382.8 212.1 0 382.8-170.7 382.8-382.8C894.2 172.29999999999995 723.6 1.6000000000000227 511.4 1.6000000000000227m0 830.2C267 831.8 64 633.5 64 384.4 64 135.29999999999995 262.299-63 511.4-63c249.1 0 447.4 198.3 447.4 447.4 0.1 244.5-202.9 447.4-447.4 447.4M539.8 357.6l-5 1.801c-14.8 5.399-27.5 5.1-37.899-0.801-6.401-3.6-14.601-11.1-17.301-25.9-2.8-15.5 5-32 19.101-40.2 5.6-3.3 11.8-4.9 17.899-4.9 8.4 0 16.801 3.101 24 9.101 8.2 6.899 12.9 15.899 13.601 25.899 1.2 16.4-8.9 28.801-10.9 31.101L539.8 357.6z m-0.9 236.1c-5.5 8.9-16.4 12.8-26.301 9.5-21.699-7.2-39.6-57.9-36-102.4 3.801-50.1 14.101-80.3 14.5-81.5l1-2.5c4.301-8.6 12.301-13.6 21-13.6 1.9 0 3.9 0.3 5.801 0.8 28.5 7.3 39 77.9 38.199 98.4-0.999 33.5-10.199 78.9-18.199 91.3m151.2-324.9c-24.699 23-63.3 48.601-77.699 51.7-10.101 2.3-20.5-2.6-25.2-12-10.3-20.5 12.899-69 46.8-98 38.2-32.6 66.9-46.7 68-47.3l2.7-1.101c2.7-0.899 5.399-1.3 7.899-1.3 8.2 0 15.7 4.101 20 11.4 15 25.401-27.5 82.701-42.5 96.601m-253 57.5c-20.5 10.3-69.1-12.899-98-46.899-32.6-38.101-46.7-66.801-47.299-68l-1-2.601c-3.6-11.1 0.3-22.3 9.9-28 3.6-2.1 8-3.1 12.8-3.1 28.2 0 71.9 32.899 83.9 45.8 23 24.7 48.6 63.4 51.6 77.6 2.299 10.1-2.601 20.5-11.901 25.2"  horiz-adv-x="1024" />

    
    <glyph glyph-name="public" unicode="&#59278;" d="M398.431 114.221c-55.43-0.989-68.958 79.955-68.298 94.144 0.22 26.726-6.049 52.9-20.126 75.666-5.389 8.249-11.658 15.947-18.696 22.767l-0.771 0.771-0.66 0.768c-19.137 21.228-36.293 44.542-50.811 69.179-13.528 21.557-25.076 44.542-34.094 68.298l-0.22 0.769c-8.578 24.086-13.197 49.382-13.857 74.898-0.77 26.505 1.76 52.9 7.479 78.746 8.578 39.043 24.746 75.336 48.281 107.781 32.114 45.971 75.447 83.695 125.597 108.771l0.44 0.219c21.996 10.559 45.202 18.587 69.067 23.646h0.11C465.08 845.48 488.835 847.9 512.48 847.9c4.949 0 10.009-0.11 14.958-0.33 40.692-1.43 80.065-10.56 117.129-27.275l0.33-0.11c23.646-10.998 45.862-24.966 65.878-41.572 29.805-24.196 55.21-53.12 75.557-85.676 19.026-30.245 32.224-63.348 39.372-98.321 6.16-28.156 8.14-57.08 5.939-85.896v-0.438c-2.199-25.295-8.248-50.041-18.037-73.467a398.16 398.16 0 0 0-54.659-96.453c-9.459-12.318-19.797-24.307-30.685-35.634-8.249-8.799-14.848-18.917-19.467-30.137l-0.439-0.878-0.44-0.88c-20.678-34.864-16.718-80.396-18.587-88.864l-0.33-1.319-0.439-1.321c-0.99-26.945-33.765-65.327-66.869-65.217M338.162 353.20899999999995a198.485 198.485 0 0 0 27.166-33.435l0.33-0.55c21.006-33.653 31.894-72.479 31.455-112.18v-1.43c-0.11-2.86 0.439-5.72 1.76-8.249l0.55-1.21c4.619-9.788 14.518-16.057 25.295-16.057H511.823l84.905 0.109h0.329a29.882 29.882 0 0 1 15.618 4.068l0.988 0.55c5.499 2.861 9.569 7.59 11.659 13.419 0.989 4.619 1.649 9.458 1.868 14.188l0.111 1.319c0.329 2.969 0.439 6.269 0.659 9.679 0.44 6.379 0.88 13.637 2.09 21.336l0.221 1.1c3.629 18.587 9.787 36.622 18.146 53.669 7.698 18.038 18.477 34.426 31.895 48.724l0.329 0.33a357.014 357.014 0 0 1 26.066 30.244c18.915 24.636 34.313 51.691 45.642 80.615l0.219 0.66c7.148 17.267 11.659 35.414 13.309 54 1.649 22.436 0.109 44.872-4.729 66.868l-0.11 0.44c-5.499 27.275-15.837 53.01-30.684 76.546l-0.11 0.11c-16.497 26.505-37.174 49.821-61.369 69.508l-0.221 0.22c-15.727 12.978-32.994 23.976-51.471 32.444-29.254 13.088-60.269 20.347-92.273 21.446h-0.33a281.906 281.906 0 0 1-69.288-5.608c-18.586-3.96-36.733-10.119-53.89-18.367-40.362-20.346-75.227-50.591-100.962-87.654l-0.44-0.55c-18.146-25.076-30.794-53.121-37.393-83.475v-0.22c-4.62-20.458-6.599-41.573-5.939-62.579v-0.221c0.44-18.476 3.739-36.732 9.898-54.11 7.588-19.796 17.156-38.824 28.375-56.75l0.55-0.879c12.317-20.565 26.614-40.141 42.671-58.068M655.125 58.351c0-18.257-14.736-32.994-32.994-32.994H405.36c-18.257 0-32.994 14.737-32.994 32.994v4.289c0 18.257 14.737 32.994 32.994 32.994h216.771c18.258 0 32.994-14.737 32.994-32.994v-4.289zM584.848-30.732999999999947c0-18.258-14.736-32.994-32.994-32.994h-76.326c-18.257 0-32.995 14.736-32.995 32.994v4.288c0 18.258 14.737 32.994 32.995 32.994h76.326c18.258 0 32.994-14.736 32.994-32.994v-4.288zM613.223 460.659c0-17.157-13.967-31.125-31.125-31.125l-143.964 0.66c-17.157 0-31.125 13.968-31.125 31.125v3.959c0 17.157 13.968 31.125 31.125 31.125l143.964-0.66c17.158 0 31.125-13.968 31.125-31.125v-3.959zM412.728 442.182c-12.208 12.208-12.208 31.895 0 43.992l112.18 109.321c12.209 12.208 31.895 12.208 43.992 0l2.749-2.75c12.21-12.208 12.21-31.894-1.1-43.992L458.37 439.433c-11.108-12.208-30.795-12.208-42.893 0l-2.749 2.749zM481.686 366.187c-12.208 12.207-12.208 31.894 0 43.992l78.636 75.996c12.208 12.208 31.895 12.208 43.992 0l2.749-2.75c12.209-12.207 12.209-31.894 0-43.992l-78.636-75.996c-12.207-12.209-31.895-12.209-43.992 0l-2.749 2.75z"  horiz-adv-x="1024" />

    
    <glyph glyph-name="nightscape" unicode="&#59279;" d="M641.347 78.99599999999998c0-16.567-13.432-30-30-30H414.276c-16.57 0-30 13.433-30 30v3.919c0 16.568 13.43 30 30 30h197.071c16.568 0 30-13.432 30-30v-3.919zM577.488-2c0-16.567-13.432-30-30-30h-69.354c-16.57 0-30 13.433-30 30v3.919c0 16.568 13.43 30 30 30h69.354c16.568 0 30-13.432 30-30V-2zM407.924 129.77499999999998c-50.408-0.921-62.681 72.727-62.125 85.618 0.177 24.345-5.503 48.124-18.336 68.823a123.74 123.74 0 0 1-16.982 20.695l-0.674 0.658-0.631 0.701a393.191 393.191 0 0 0-46.215 62.936 354.275 354.275 0 0 0-31.007 62.109l-0.243 0.661a218.955 218.955 0 0 0-12.583 68.125 288.655 288.655 0 0 0 6.841 71.628c7.775 35.542 22.534 68.503 43.866 97.973 29.153 41.847 68.646 76.056 114.228 98.943l0.437 0.216a278.529 278.529 0 0 0 62.82 21.474l0.124 0.026a315.112 315.112 0 0 0 64.184 6.621c4.513 0 9.085-0.099 13.595-0.294 36.964-1.255 72.802-9.595 106.52-24.787l0.276-0.126a275.018 275.018 0 0 0 59.905-37.777 315.28 315.28 0 0 0 68.735-77.901c17.288-27.486 29.337-57.553 35.813-89.368a270.602 270.602 0 0 0 5.42-78.088l-0.028-0.36a225.954 225.954 0 0 0-16.368-66.795 358.85 358.85 0 0 0-49.654-87.702 388.85 388.85 0 0 0-27.878-32.369 93.348 93.348 0 0 1-17.736-27.363l-0.357-0.844-0.408-0.821c-18.799-31.731-15.168-73.11-16.909-80.784l-0.276-1.224-0.38-1.197c-0.852-24.526-30.683-59.407-60.771-59.27M527.646 345.48l69.057 71.719a31.999 31.999 0 0 1-23.051 54.195h-60.187l62.731 66.274c12.148 12.835 11.593 33.089-1.242 45.238-12.837 12.15-33.09 11.592-45.238-1.243L415.875 461.392a32 32 0 0 1 23.24-53.998h59.302l-16.873-17.523c-12.258-12.731-11.875-32.989 0.855-45.247 6.208-5.978 14.205-8.949 22.192-8.949 8.394 0.001 16.775 3.282 23.055 9.805z"  horiz-adv-x="1024" />

    
    <glyph glyph-name="environment" unicode="&#59281;" d="M480.87-64.73199999999997c-68.626 0-133.155 26.555-181.7 74.772-48.604 48.276-75.372 112.48-75.372 180.787 0 67.449 27.216 132.718 74.935 180.349V683.16c0 41.997 21.374 82.156 58.642 110.182 33.569 25.242 77.427 39.144 123.495 39.144 46.067 0 89.925-13.901 123.491-39.144 37.266-28.022 58.64-68.182 58.64-110.182v-311.978c47.72-47.635 74.938-112.906 74.938-180.355 0-68.31-26.768-132.515-75.372-180.788-48.536-48.216-113.065-74.771-181.697-74.771z m0 833.217c-32.282 0-62.48-9.338-85.03-26.295-21.04-15.821-33.106-37.337-33.106-59.03v-339.536l-14.428-13.532c-38.46-36.007-60.507-86.76-60.507-139.265 0-51.129 20.056-99.208 56.474-135.379 36.474-36.229 84.985-56.181 136.598-56.181 51.617 0 100.127 19.951 136.594 56.179 36.419 36.171 56.475 84.249 56.475 135.381 0 52.505-22.046 103.26-60.486 139.251l-14.451 13.527V683.16c0 21.695-12.066 43.21-33.104 59.03-22.551 16.957-52.748 26.295-85.029 26.295zM804.813 672.264c0-18.41-14.923-33.333-33.333-33.333h-48.594c-18.409 0-33.333 14.923-33.333 33.333 0 18.409 14.924 33.333 33.333 33.333h48.594c18.411 0 33.333-14.924 33.333-33.333zM804.813 563.816c0-18.41-14.923-33.333-33.333-33.333h-48.594c-18.409 0-33.333 14.923-33.333 33.333 0 18.409 14.924 33.333 33.333 33.333h48.594c18.411 0 33.333-14.924 33.333-33.333zM804.813 455.368c0-18.41-14.923-33.333-33.333-33.333h-48.594c-18.409 0-33.333 14.923-33.333 33.333 0 18.409 14.924 33.333 33.333 33.333h48.594c18.411 0 33.333-14.924 33.333-33.333zM483.941 193m-64 0a64 64 0 1 1 128 0 64 64 0 1 1-128 0ZM512.448 214.827c0-16.153-13.095-29.248-29.248-29.248s-29.248 13.095-29.248 29.248V611.562c0 16.153 13.095 29.248 29.248 29.248s29.248-13.095 29.248-29.248v-396.735z"  horiz-adv-x="1024" />

    
    <glyph glyph-name="safety" unicode="&#59282;" d="M575.4 321c0-35.1-28.5-63.6-63.6-63.6s-63.6 28.5-63.6 63.6 28.5 63.6 63.6 63.6c35.2 0 63.6-28.5 63.6-63.6zM509.8 64.29999999999995c-17.7 0-32 14.298-32 32V321.6c0 17.702 14.3 32 32 32s32-14.298 32-32v-225.4c0-17.6-14.3-31.9-32-31.9zM825.1-64.20000000000005h-624.4c-57.3 0-104 46-104 102.5V410c0 56.5 46.7 102.5 104 102.5h624.4c57.3 0 104-46 104-102.5v-371.6c0-56.6-46.6-102.6-104-102.6z m-624.4 512.7c-22.1 0-40-17.3-40-38.5v-371.6c0-21.3 17.9-38.5 40-38.5h624.4c22.1 0 40 17.298 40 38.5V410c0 21.3-17.9 38.5-40 38.5h-624.4zM768.3 513.1l-64 0.5 0.6 76.4c-0.1 98.4-86.202 178.4-192.1 178.4s-192-80-192.1-178.4l0.6-76.4-64-0.5-0.6 76.8c0 65.2 26.9 126.3 75.7 172.2 48.3 45.4 112.3 70.3 180.4 70.3 68.1 0 132.1-25 180.4-70.3 48.8-45.9 75.702-107 75.702-172.2v-0.2l-0.602-76.6z"  horiz-adv-x="1024" />

    
    <glyph glyph-name="video" unicode="&#59283;" d="M511.12 307.86199999999997c82.275 0 149.208 65.933 149.208 146.997 0 81.064-66.941 146.993-149.208 146.993-82.266 0-149.203-65.936-149.203-147-0.008-81.065 66.937-146.99 149.203-146.99z m0 230.992c47.014 0 85.267-37.678 85.267-83.994 0-46.32-38.245-84.003-85.267-84.003-47.005 0-85.258 37.683-85.258 84.003 0 46.308 38.245 83.994 85.258 83.994zM877.517-6.351999999999975c-63.772 52.7-138.502 90.985-218.907 112.184 0.619 0.261 1.254 0.496 1.874 0.755 45.588 18.97 86.994 46.474 121.936 80.997 35.036 34.422 62.959 75.226 82.205 120.141 19.998 46.542 30.264 96.583 30.17 147.127 0.094 50.548-10.165 100.596-30.17 147.142-19.246 44.908-47.169 85.708-82.205 120.127-34.941 34.519-76.348 62.029-121.936 81.003-47.262 19.691-98.057 29.799-149.372 29.708-51.31 0.099-102.108-10.012-149.355-29.723-45.688-19.036-86.721-46.294-121.938-80.988-35.218-34.695-62.894-75.116-82.212-120.135-19.999-46.553-30.252-96.601-30.156-147.148-0.097-50.541 10.161-100.584 30.156-147.125 19.253-44.917 47.172-85.713 82.212-120.144 34.938-34.522 76.351-62.024 121.938-80.994 0.644-0.275 1.294-0.505 1.922-0.779-77.505-20.406-149.762-56.699-212.048-106.499-13.701-10.974-15.782-30.807-4.644-44.307 11.138-13.49 31.278-15.536 44.981-4.569 89.82 71.944 203.16 111.558 319.139 111.558 118.867 0 234.386-41.407 325.285-116.572 5.734-4.775 13.016-7.387 20.531-7.371 9.454-0.016 18.426 4.099 24.5 11.232 11.375 13.302 9.638 33.157-3.858 44.353a0.238 0.238 0 0 1-0.048 0.027zM285.046 232.11699999999996c-29.206 28.7-52.485 62.712-68.539 100.135-16.657 38.796-25.203 80.488-25.118 122.6-0.113 83.556 33.595 163.712 93.656 222.719 29.129 28.773 63.645 51.708 101.64 67.531 39.367 16.411 81.693 24.828 124.441 24.748 43.181 0 85.05-8.33 124.455-24.755 37.996-15.819 72.521-38.75 101.645-67.523 29.202-28.689 52.469-62.693 68.507-100.123 16.681-38.819 25.119-80.061 25.119-122.596 0-42.531-8.438-83.789-25.119-122.6-16.03-37.439-39.305-71.441-68.521-100.135-29.126-28.769-63.634-51.692-101.63-67.52-39.42-16.407-81.292-24.731-124.455-24.731-43.167 0-85.04 8.324-124.441 24.731-37.996 15.819-72.516 38.751-101.64 67.519z"  horiz-adv-x="1024" />

    
    <glyph glyph-name="patrol" unicode="&#59284;" d="M801.575 175.29399999999998c-12.308-0.001-24.131 6.877-29.868 18.692l-61.256 126.156a33.164 33.164 0 0 0-1.863 24.252l41.249 133.985c5.393 17.512 23.956 27.336 41.468 21.946 17.512-5.391 27.337-23.957 21.944-41.467l-37.402-121.494 55.548-114.398c8.003-16.481 1.131-36.33-15.353-44.334a33.073 33.073 0 0 0-14.467-3.338M703.023 175.29399999999998c-12.307-0.001-24.131 6.877-29.867 18.692l-61.257 126.156a33.168 33.168 0 0 0-1.862 24.252l41.249 133.985c5.392 17.512 23.956 27.336 41.468 21.946 17.512-5.391 27.337-23.957 21.944-41.467l-37.402-121.494 55.548-114.398c8.003-16.481 1.129-36.33-15.354-44.334a33.066 33.066 0 0 0-14.467-3.338M369.058 358.33799999999997a32.013 32.013 0 0 0-17.821 5.411c-73.996 49.344-118.171 131.839-118.171 220.673 0 70.803 27.573 137.37 77.639 187.436 50.065 50.066 116.63 77.639 187.436 77.639 60.809 0 120.221-21.112 167.292-59.448 46.384-37.778 78.937-90.601 91.654-148.738 3.799-17.359-7.194-34.51-24.553-38.309-17.36-3.799-34.512 7.197-38.309 24.556-19.979 91.314-102.444 157.59-196.085 157.59-110.68 0-200.726-90.044-200.726-200.724 0-67.273 33.467-129.754 89.525-167.138 14.784-9.859 18.775-29.835 8.917-44.619-6.2-9.298-16.403-14.329-26.798-14.329M327.181-59.436000000000035s-82.377 4.158-115.905 17.446c-42.794 16.961-74.894 57.008-92.831 99.285-19.687 46.407-30.973 102.975-14.161 168.13 13.79 53.443 56.381 102.898 102.086 139.256 46.92 37.323 104.283 57.822 161.703 57.822 0.584 0 1.165-0.002 1.749-0.007 17.768-0.129 32.07-14.638 31.94-32.407-0.128-17.688-14.509-31.938-32.169-31.94-0.08 0-0.158 0-0.238 0.002-87.982 0.629-186.992-61.958-202.763-148.802-18.853-103.819 20.648-174.795 68.393-193.698 27.09-10.726 89.504-11.094 89.504-11.094s181.711 0.075 204.155 0.148h0.107s35.448-3.355 35.448-32.068-35.345-32.28-35.345-32.28l-201.673 0.207zM585.568 402.216c-13.132-12.102-33.59-11.266-45.69 1.867l-51.6 55.996c-12.102 13.133-11.265 33.589 1.867 45.69l2.827 2.605c13.134 12.102 33.589 11.266 45.692-1.868l51.599-55.997c12.101-13.132 11.265-33.59-1.866-45.688l-2.829-2.605zM583.271 321.65c0-17.857-14.479-32.334-32.336-32.334h-74.339c-17.86 0-32.336 14.477-32.336 32.334v3.845c0 17.857 14.477 32.334 32.336 32.334h74.339c17.856 0 32.336-14.477 32.336-32.334v-3.845zM577.058 166.41700000000003c11.456-13.695 9.643-34.089-4.056-45.548l-57.019-47.696c-13.698-11.459-34.091-9.646-45.548 4.054l-2.468 2.947c-11.457 13.699-9.643 34.09 4.054 45.549l57.02 47.698c13.698 11.458 34.092 9.643 45.547-4.053l2.47-2.951zM611.535 76.47500000000002c-13.697-11.458-37.444-5.633-53.038 13.01l-27.104 31.108c-15.596 18.642-17.135 43.046-3.438 54.503l2.949 2.466c13.696 11.458 37.442 5.635 53.038-13.01l27.106-31.108c15.592-18.642 17.131-43.045 3.436-54.502l-2.949-2.467zM546.846 113.86699999999996c-17.857 0-32.334 14.478-32.334 32.335V325.495c0 17.857 14.477 32.334 32.334 32.334h4.089c17.859 0 32.335-14.477 32.335-32.334v-179.293c0-17.857-14.476-32.335-32.335-32.335h-4.089zM917.603 103.27099999999996c0-17.856-14.479-32.336-32.336-32.336H591.564c-17.856 0-32.333 14.479-32.333 32.336v4.225c0 17.858 14.477 32.335 32.333 32.335h293.702c17.856 0 32.336-14.477 32.336-32.335v-4.225zM900.126 175.29399999999998c-12.308-0.001-24.131 6.877-29.868 18.692l-61.256 126.156a33.169 33.169 0 0 0-1.863 24.252l41.249 133.985c5.392 17.512 23.956 27.336 41.469 21.946 17.511-5.391 27.336-23.957 21.943-41.467l-37.402-121.494 55.549-114.398c8.002-16.481 1.129-36.33-15.354-44.334a33.076 33.076 0 0 0-14.467-3.338"  horiz-adv-x="1024" />

    
    <glyph glyph-name="statistics" unicode="&#59285;" d="M514.256-61.702999999999975c-38.329 0-82.518 9.197-124.431 25.895-48.039 19.137-91.31 47.365-125.135 81.631-62.744 63.678-94.739 147.32-92.544 241.91 2.301 99.492 52.801 213.726 150.096 339.527 67.654 87.582 133.504 149.011 139.487 154.522l-0.003 0.002 51.301 47.441 52.476-46.223c7.27-6.44 72.332-64.816 138.713-148.851 96.722-122.563 145.993-235.698 146.451-336.274 0.62-104.885-34.061-195.242-100.293-261.27-61.883-61.568-150.145-98.31-236.118-98.31m-0.198 805.901l-9.911-9.156c-0.565-0.512-65.359-60.167-131.961-146.386-88.883-114.926-134.95-216.658-136.933-302.388-1.789-77.105 23.931-144.922 74.381-196.121 60.169-60.953 148.252-88.727 204.623-88.727 69.661 0 141.281 29.873 191.578 79.912 53.966 53.799 82.229 128.57 81.712 216.211-0.394 86.191-45.098 186.265-132.871 297.49-64.077 81.117-128.262 138.268-130.963 140.661l-9.655 8.504zM514.674 160.52599999999995a31.85 31.85 0 0 0-15.885 4.244c-15.333 8.789-20.637 28.344-11.848 43.676l56.104 97.869-118.606 0.626a32 32 0 0 0-25.867 50.605l117.239 164.075c10.273 14.379 30.26 17.706 44.641 7.433 14.379-10.275 17.707-30.261 7.432-44.641L486.57 370.615l111.708-0.59a31.999 31.999 0 0 0 27.593-47.914l-83.403-145.493c-5.914-10.315-16.699-16.091-27.794-16.092z"  horiz-adv-x="1024" />

    
    <glyph glyph-name="overflow" unicode="&#59280;" d="M591.56 765.754c-4.418-5.402-108.15-132.68-108.15-193.978 0.066-64.02 51.947-115.902 115.969-115.968 63.974 0.132 115.782 51.994 115.849 115.968 0 61.357-103.703 188.665-108.12 193.978M381.049 361.803c50.336 0.066 91.121 40.865 91.169 91.2 0 47.002-74.816 139.664-83.35 150.08l-7.819 9.55-7.848-9.55c-8.536-10.416-83.292-103.047-83.292-150.08 0.066-50.324 40.845-91.104 91.169-91.168M926.247 161.73900000000003a32.2 32.2 0 0 0-28.859 17.906 110.419 110.419 0 0 1-77.589 60.758 144.548 144.548 0 0 1-31.844 3.403 201.131 201.131 0 0 1-117.997-41.213 83.542 83.542 0 0 0-50.045-20.322 68.629 68.629 0 0 0-45.363 20.174 141.404 141.404 0 0 1-39.183 25.097 149.214 149.214 0 0 1-120.475-3.971h-0.328a166.412 166.412 0 0 1-28.411-15.607l-2.179-1.55c-0.555-0.39-1.074-0.83-1.551-1.313l-0.986-1.045c-0.476-0.497-0.965-0.976-1.462-1.433a64.161 64.161 0 0 0-10.444-7.76 80.673 80.673 0 0 0-9.34-5.37 32.205 32.205 0 0 0-22.83-1.344 50.736 50.736 0 0 0-21.098 14.712 154.795 154.795 0 0 1-26.529 21.875c-43.611 27.898-99.402 28.131-143.245 0.598h-0.239a162.044 162.044 0 0 1-29.187-20.443c-13.37-11.727-33.713-10.396-45.442 2.975-0.001 0.003-0.005 0.007-0.008 0.01-11.727 13.371-10.397 33.715 2.972 45.441l0.011 0.009a226.758 226.758 0 0 0 40.675 28.53c64.73 39.152 146.113 37.994 209.703-2.984a221.183 221.183 0 0 0 24.173-18.265l0.268 0.181 0.417 0.297a231.057 231.057 0 0 0 39.541 21.756 214.87 214.87 0 0 0 171.358 4.207 205.628 205.628 0 0 0 57.028-36.497c1.462-1.313 2.596-2.238 3.463-2.982a62.927 62.927 0 0 1 10.176 6.533 266.773 266.773 0 0 0 156.764 54.196 209.078 209.078 0 0 0 46.048-5.014 179.366 179.366 0 0 0 71.623-33.456 177.732 177.732 0 0 0 49.538-61.385c7.934-15.915 1.468-35.245-14.443-43.183a32.089 32.089 0 0 0-14.354-3.402M926.247 7.958999999999946a32.207 32.207 0 0 0-28.859 17.905 110.418 110.418 0 0 1-77.589 60.761 144.667 144.667 0 0 1-31.844 3.401 201.13 201.13 0 0 1-117.997-41.212 83.556 83.556 0 0 0-50.045-20.323 68.643 68.643 0 0 0-45.363 20.174 141.338 141.338 0 0 1-39.183 25.098 149.218 149.218 0 0 1-120.475-3.97h-0.328a166.412 166.412 0 0 1-28.411-15.607l-2.179-1.551c-0.555-0.391-1.074-0.83-1.551-1.313l-0.986-1.045c-0.476-0.497-0.965-0.975-1.462-1.433a64.155 64.155 0 0 0-10.444-7.759 80.68 80.68 0 0 0-9.34-5.371 32.19 32.19 0 0 0-22.83-1.344 50.73 50.73 0 0 0-21.098 14.713 154.835 154.835 0 0 1-26.529 21.874c-43.611 27.897-99.402 28.13-143.245 0.598h-0.239a162.094 162.094 0 0 1-29.187-20.443c-13.37-11.726-33.713-10.396-45.442 2.974-0.001 0.005-0.005 0.008-0.008 0.012-11.727 13.369-10.397 33.713 2.972 45.441l0.011 0.01a226.844 226.844 0 0 0 40.675 28.527c64.73 39.154 146.113 37.994 209.703-2.983a221.039 221.039 0 0 0 24.173-18.263l0.268 0.178 0.417 0.299a231.189 231.189 0 0 0 39.541 21.755 214.865 214.865 0 0 0 171.358 4.209 205.746 205.746 0 0 0 57.028-36.498c1.462-1.313 2.596-2.238 3.463-2.985a63.017 63.017 0 0 1 10.176 6.537 266.768 266.768 0 0 0 156.764 54.192 208.777 208.777 0 0 0 46.048-5.014 179.36 179.36 0 0 0 71.623-33.453 177.739 177.739 0 0 0 49.538-61.387c7.934-15.914 1.468-35.245-14.443-43.183a32.1 32.1 0 0 0-14.354-3.401"  horiz-adv-x="1024" />

    
    <glyph glyph-name="police" unicode="&#59286;" d="M761.379-10h-64V390c0 87.925-88.178 168-185 168h-2.174c-88.327 0-191-73.386-191-168v-400h-64V390c0 31.812 7.684 62.919 22.84 92.457 13.963 27.214 33.589 51.839 58.333 73.191C385.245 597.816 448.602 622 510.205 622h2.174c61.449 0 123.871-24.323 171.261-66.733 23.853-21.346 42.729-46.023 56.106-73.348 14.354-29.32 21.633-60.247 21.633-91.919v-400zM969-9.932000000000016c0-17.834-14.457-32.291-32.291-32.291H96.504c-17.834 0-32.292 14.457-32.292 32.291 0 17.835 14.458 32.292 32.292 32.292h840.205c17.834 0 32.291-14.457 32.291-32.292zM516.01 129.63199999999995c-4.797 0-9.51 1.261-13.667 3.651-13.193 7.562-17.755 24.385-10.195 37.572l48.265 84.194-102.031 0.539c-15.206 0.081-27.464 12.469-27.385 27.672a27.536 27.536 0 0 0 5.131 15.861l100.856 141.146c8.84 12.371 26.032 15.236 38.403 6.396 12.369-8.837 15.234-26.034 6.396-38.404l-69.954-97.895 96.101-0.508c15.201-0.081 27.459-12.468 27.382-27.671a27.525 27.525 0 0 0-3.647-13.55L539.92 143.47799999999995c-5.089-8.878-14.366-13.842-23.91-13.846zM199.096 373.46000000000004c0-15.239-12.354-27.593-27.593-27.593H90.926c-15.239 0-27.593 12.354-27.593 27.593s12.354 27.593 27.593 27.593h80.577c15.24 0 27.593-12.354 27.593-27.593zM963.008 373.46000000000004c0-15.239-12.354-27.593-27.593-27.593h-80.577c-15.239 0-27.593 12.354-27.593 27.593s12.354 27.593 27.593 27.593h80.577c15.239 0 27.593-12.354 27.593-27.593zM288.391 587.874c-10.776-10.776-28.247-10.776-39.022 0l-56.977 56.977c-10.776 10.776-10.776 28.247 0 39.022 10.776 10.775 28.247 10.775 39.022 0l56.977-56.977c10.776-10.775 10.776-28.246 0-39.022zM730.641 583.727c-10.776 10.776-10.776 28.247 0 39.022l56.977 56.977c10.775 10.775 28.246 10.775 39.022 0 10.775-10.775 10.775-28.246 0-39.021l-56.978-56.978c-10.775-10.777-28.246-10.777-39.021 0zM507.525 674.014c-15.241 0-27.594 12.354-27.593 27.593v80.577c0 15.239 12.354 27.592 27.593 27.593 15.238 0 27.592-12.354 27.592-27.592v-80.579c0.001-15.239-12.352-27.593-27.592-27.592z"  horiz-adv-x="1024" />

    
    <glyph glyph-name="control" unicode="&#59287;" d="M801.753-6.128000000000043h-62.107V251.567h54.085c15.031 0.165 27.134 12.398 27.134 27.434V420.162c-0.04 14.913-12.163 26.973-27.073 26.933h-54.146v79.654a18.1 18.1 0 0 1 7.721 3.57h34.583c14.95 0 27.073 12.12 27.073 27.073 0 14.953-12.123 27.073-27.073 27.073h-26.19c-14.68 68.647-61.405 126.08-125.629 154.416 0.07 0.802 0.221 1.564 0.221 2.387V805.059c-0.101 14.993-12.293 27.091-27.284 27.073h-121.92c-14.99 0.018-27.181-12.083-27.273-27.073v-63.832c0-0.822 0.14-1.644 0.221-2.446-64.269-28.226-111.024-85.658-125.629-154.316h-26.19c-14.953 0-27.073-12.12-27.073-27.073 0-14.953 12.12-27.073 27.073-27.073h34.583a18.068 18.068 0 0 1 7.721-3.57v-79.654h-54.085c-14.913 0.072-27.061-11.96-27.133-26.873v-141.221c0-15.035 12.1-27.269 27.133-27.434h54.085v-257.695h-62.107c-14.953 0-27.073-12.122-27.073-27.072s12.12-27.073 27.073-27.073h519.28c14.95 0 27.072 12.123 27.072 27.073s-12.123 27.072-27.073 27.072z m-35.035 399.076v-87.235h-27.072v87.235h27.072zM508.021 777.986h68.184v-23.403a221.82 221.82 0 0 1-68.184 0v23.403z m-77.95-118.951c66.378 61.887 170.359 58.242 232.246-8.137a164.392 164.392 0 0 0 37.672-66.434H384.237a164.91 164.91 0 0 0 45.834 74.571zM317.507 305.71299999999997v87.235h27.073v-87.235h-27.073z m81.219-311.841V530.318h286.773v-536.446H398.726zM485.961 476.272c-14.952 0-27.073-12.12-27.073-27.073v-376.114c0-14.95 12.121-27.073 27.073-27.073 14.953 0 27.073 12.123 27.073 27.073V449.2c0 14.952-12.12 27.072-27.073 27.072z m112.303 0c-14.95 0-27.072-12.12-27.072-27.073v-376.114c0-14.95 12.122-27.073 27.072-27.073 14.951 0 27.073 12.123 27.073 27.073V449.2c0 14.952-12.122 27.072-27.073 27.072z"  horiz-adv-x="1024" />

    
    <glyph glyph-name="flow" unicode="&#59288;" d="M510.107-63.214000000000055c-60.345 0-118.902 11.826-174.044 35.149-53.245 22.521-101.057 54.754-142.108 95.805-41.051 41.052-73.285 88.863-95.806 142.108C74.826 264.991 63 323.548 63 383.89300000000003c0 60.345 11.826 118.902 35.149 174.044 22.521 53.245 54.754 101.057 95.806 142.108s88.863 73.285 142.108 95.806C391.205 819.174 449.762 831 510.107 831c60.345 0 118.902-11.826 174.044-35.149 53.245-22.521 101.057-54.754 142.108-95.806 41.051-41.051 73.284-88.863 95.805-142.108 23.323-55.142 35.149-113.699 35.149-174.044 0-60.345-11.826-118.902-35.149-174.044-22.521-53.245-54.754-101.057-95.805-142.108-41.052-41.051-88.863-73.284-142.108-95.805-55.142-23.324-113.699-35.15-174.044-35.15z m0 830.214C298.861 767 127 595.139 127 383.89300000000003s171.861-383.107 383.107-383.107 383.107 171.861 383.107 383.107S721.353 767 510.107 767zM497.406 322.701c-17.454 0-31.565-14.113-31.565-31.564v-97.374c0-17.453 14.112-31.564 31.565-31.564 17.453 0 31.565 14.111 31.565 31.564v97.374c0.001 17.451-14.112 31.564-31.565 31.564zM287.205 277.06600000000003c-17.454 0-31.565-14.113-31.565-31.564v-51.739c0-17.453 14.112-31.564 31.565-31.564 17.453 0 31.565 14.111 31.565 31.564v51.739c0.001 17.451-14.112 31.564-31.565 31.564zM735.899 364.746c-17.452 0-31.565-14.111-31.565-31.564v-139.419c0-17.453 14.113-31.564 31.565-31.564 17.451 0 31.566 14.111 31.566 31.564V333.182c0.001 17.453-14.114 31.564-31.566 31.564zM283.946 353.53099999999995c-8.505 0-16.991 2.9-23.287 8.647-12.125 11.067-11.532 28.501 1.326 38.938l154.59 125.494c12.427 10.087 31.868 9.996 44.165-0.209l83.606-69.383 172.892 145.204c12.649 10.625 32.908 10.409 45.251-0.479 12.342-10.889 12.093-28.329-0.558-38.953L566.825 398.929c-12.377-10.395-32.107-10.444-44.557-0.114l-83.982 69.696-132.391-107.474c-6.181-5.018-14.073-7.506-21.949-7.506zM761.151 578.304c0-17.534-14.215-31.748-31.748-31.748H598.757c-17.533 0-31.748 14.214-31.748 31.748s14.215 31.748 31.748 31.748h130.646c17.534 0 31.748-14.214 31.748-31.748zM740.214 411.556c-17.534 0-31.748 14.214-31.748 31.748V573.95c0 17.533 14.214 31.748 31.748 31.748s31.748-14.215 31.748-31.748v-130.646c0-17.534-14.214-31.748-31.748-31.748z"  horiz-adv-x="1024" />

    
    <glyph glyph-name="drainage" unicode="&#59289;" d="M856.547 195.62199999999996c-3.754 0-7.495 0.188-11.238 0.563-17.585 1.761-30.413 17.443-28.652 35.029 1.761 17.585 17.438 30.409 35.029 28.652 10.856-1.087 22.775 1.691 36.426 8.497a113.159 113.159 0 0 0 34.7 11.012c9.438 1.545 19.452-1.136 26.987-8.151 12.935-12.043 13.672-32.276 1.629-45.212l-0.026-0.028a32.006 32.006 0 0 0-18.969-9.883 49.307 49.307 0 0 1-15.468-4.864c-0.062-0.031-0.123-0.063-0.185-0.093-20.831-10.403-40.647-15.522-60.233-15.522zM836.962 31.086000000000013c-22.021 0-43.534 5.46-64.833 16.377-14.637 7.517-23.525 10.552-31.723 10.837-17.662 0.614-31.482 15.432-30.867 33.094 0.614 17.663 15.396 31.518 33.094 30.867 22.569-0.785 41.555-9.045 58.71-17.854 25.746-13.196 49.661-12.371 79.948 2.771 0.243 0.121 0.488 0.24 0.733 0.355a133.581 133.581 0 0 0 41.592 12.969c17.507 2.436 33.676-9.761 36.121-27.264s-9.761-33.675-27.264-36.121a69.69 69.69 0 0 1-22.227-7.031c-0.421-0.216-0.845-0.422-1.273-0.619-24.797-12.254-48.692-18.38-72.011-18.381zM847.567 118.84400000000005c-17.995 0-35.643 4.007-53.167 12.015-16.074 7.346-23.15 26.331-15.806 42.405 7.347 16.075 26.329 23.149 42.405 15.806 20.428-9.336 39.539-8.14 63.881 4.008a122.634 122.634 0 0 0 38.676 12.183c17.499 2.457 33.682-9.738 36.14-27.239s-9.737-33.682-27.239-36.14a58.775 58.775 0 0 1-18.848-5.994c-22.733-11.367-44.631-17.044-66.042-17.044zM635.838 30.452999999999975H445.875c-17.673 0-32 14.327-32 32v76.342c-59.222 20.395-110.442 53.751-149.176 97.354-21.972 24.734-39.088 51.976-50.873 80.967-12.288 30.229-18.519 61.736-18.519 93.646 0 42.116 1.136 205.46 1.435 247.819L175.829 689a32.002 32.002 0 0 0 26.369 50.13h208.19a32 32 0 0 0 26.965-49.23l-21.543-33.716c-0.07-5.489-0.165-13.179-0.268-22.295a172.483 172.483 0 0 0 9.504 6.612c34.307 22.203 78.766 33.634 132.18 33.991a32.028 32.028 0 0 0 2.743 0.118h0.011c167.935-0.058 268.194-104.341 268.194-278.958 0-63.986-17.191-122.212-49.715-168.38-27.43-38.938-65.367-68.978-110.623-87.819v-76.999c0.002-17.674-14.325-32.001-31.998-32.001z m-157.963 64h125.962v67.31a32.002 32.002 0 0 0 22.248 30.478c87.758 28.081 138.09 102.221 138.09 203.411 0 137.667-71.58 213.913-201.643 214.947-0.836-0.065-1.726-0.102-2.525-0.098h-0.187c-104.295 0-133.72-49.271-146.78-86.333-5.182-14.704-20.208-23.533-35.576-20.906-15.368 2.628-26.605 15.951-26.605 31.542 0 54.014 1.066 130.606 1.077 131.374a31.967 31.967 0 0 0 1.41 8.953h-93.245c0.487-2.27 0.728-4.598 0.711-6.944-0.015-2.088-1.505-209.382-1.505-257.424 0-96.233 80.237-185.702 195.122-217.572 13.855-3.844 23.446-16.457 23.446-30.836v-67.902zM545.533 321.45899999999995c35.095 0 63.56 27.917 63.56 62.366 0 34.444-28.465 62.36-63.56 62.36-35.146 0-63.607-27.916-63.607-62.36 0-34.449 28.462-62.366 63.607-62.366zM174.555 214.89800000000002c-21.318 0-42.925 5.592-65.684 16.957l-0.18 0.091a58.893 58.893 0 0 1-18.485 5.813 32.002 32.002 0 0 0-18.712 9.61c-12.193 12.793-11.722 33.064 1.071 45.258 7.735 7.372 18.194 10.113 27.948 8.304a122.755 122.755 0 0 0 37.024-11.854c15.928-7.943 29.932-11.181 42.812-9.889 17.574 1.761 33.268-11.068 35.028-28.653 1.761-17.585-11.068-33.268-28.653-35.028-4.049-0.405-8.104-0.609-12.169-0.609zM196.428 30.938999999999965c-25.544 0-51.722 6.723-78.913 20.171a29.82 29.82 0 0 0-1.298 0.629 81.706 81.706 0 0 1-26.059 8.245c-17.503 2.446-29.709 18.617-27.264 36.121 2.445 17.503 18.617 29.708 36.12 27.264a145.575 145.575 0 0 0 45.395-14.167c0.257-0.12 0.512-0.243 0.766-0.37 35.068-17.535 62.833-18.451 92.839-3.07 18.773 9.64 39.541 18.687 64.035 19.538 17.673 0.628 32.479-13.206 33.093-30.869 0.614-17.662-13.207-32.479-30.87-33.092-9.772-0.34-20.158-3.851-37.044-12.521-23.25-11.917-46.745-17.879-70.8-17.879zM184.583 129.06399999999996c-23.382 0-47.302 6.206-72.164 18.636l-0.243 0.123a69.557 69.557 0 0 1-22.001 6.944c-17.501 2.459-29.695 18.641-27.236 36.142 2.458 17.5 18.642 29.703 36.141 27.235a133.355 133.355 0 0 0 42.062-13.252c28.36-14.153 50.711-15.514 74.715-4.547 16.075 7.346 35.06 0.269 42.404-15.807 7.345-16.074 0.268-35.06-15.807-42.404-19.058-8.708-38.276-13.07-57.871-13.07z"  horiz-adv-x="1024" />

    
    <glyph glyph-name="stop" unicode="&#59290;" d="M736.797-65.923c-17.4-0.001-31.662 13.941-31.982 31.412-0.325 17.67 13.735 32.258 31.406 32.582 40.417 0.743 77.658 23.336 92.669 56.218l3.717 8.141 7.399 5.032c19.921 13.546 35.948 31.823 46.436 52.936a77.751 77.751 0 0 0 3.178 7.382l0.065 0.362c0.354 1.898 0.888 4.768 1.958 7.978l0.337 1.011 0.403 0.986c5.854 14.313 7.675 31.861 5.728 55.227l-0.029 0.377-6.022 84.345c-1.008 16.626-5.215 33.508-12.166 48.822-7.305 16.093-0.181 35.061 15.912 42.365 16.093 7.307 35.06 0.181 42.365-15.912 10.125-22.307 16.266-46.933 17.761-71.227l5.976-83.653c2.695-32.596-0.271-58.799-9.327-82.161-0.604-3.246-1.732-9.159-4.957-15.609-0.779-1.559-0.994-2-1.264-2.809l-0.644-1.93-0.883-1.833c-14.103-29.291-35.35-54.904-61.739-74.53-13.06-24.471-33.047-45.224-58.253-60.378a176.222 176.222 0 0 0-87.443-25.127c-0.201-0.005-0.402-0.007-0.601-0.007zM295.081-65.86400000000003c-36.949 0-72.034 11.656-104.601 34.768-0.155 0.11-0.309 0.222-0.462 0.335-21.185 15.61-35.092 34.727-46.524 53.642-30.246 19.837-54.124 52.062-67.755 91.718-0.098 0.284-0.191 0.57-0.281 0.857-10.142 32.454-13.192 68.906-9.325 111.442 1.041 11.443 2.338 22.344 3.593 32.886 1.259 10.571 2.448 20.558 3.407 31.114 0.033 0.357 0.071 0.715 0.116 1.071 6.629 53.034 32.902 101.185 72.725 134.042 4.245 21.139 8.7 42.876 13.848 65.185 0.165 0.713 0.354 1.421 0.567 2.122 2.706 8.892 4.792 18.003 7.001 27.65 3.111 13.59 6.329 27.642 11.539 41.969 0.116 0.318 0.236 0.635 0.362 0.949l6 15c2.672 6.681 6.112 12.625 9.285 17.933 12.701 27.908 32.808 51.779 61.406 72.917 0.095 0.07 0.189 0.14 0.285 0.208 22.697 16.392 43.523 27.103 65.541 33.708 0.475 0.143 0.953 0.274 1.434 0.394 2.629 0.658 5.519 1.512 8.577 2.416 9.601 2.839 21.489 6.354 35.106 6.532 12.119 0.718 24.798 1.106 39.812 1.221 17.712 0.148 32.109-14.082 32.244-31.754 0.135-17.673-14.082-32.109-31.754-32.244-14.213-0.108-26.061-0.476-37.286-1.157-0.649-0.04-1.295-0.06-1.941-0.06-4.804 0-11.232-1.9-18.037-3.913-3.322-0.982-6.749-1.996-10.396-2.928-14.71-4.504-29.251-12.143-45.689-23.999-19.968-14.788-33.573-30.833-41.587-49.048a32.079 32.079 0 0 0-1.85-3.576c-2.301-3.835-4.681-7.801-5.729-10.421l-5.801-14.502c-3.768-10.479-6.376-21.875-9.137-33.931-2.281-9.961-4.637-20.25-7.83-30.906-5.792-25.189-10.759-50.024-15.565-74.052a31.993 31.993 0 0 0-12.716-19.718c-31.051-22.293-51.75-57.8-56.846-97.474-1.031-11.235-2.307-21.949-3.541-32.315-1.259-10.571-2.448-20.558-3.407-31.114-3.071-33.784-0.933-61.962 6.54-86.125 9.711-27.989 26.166-49.688 46.368-61.137a31.998 31.998 0 0 0 11.917-11.808c10.379-17.929 19.545-31.075 33.066-41.107 25.377-17.938 51.483-25.176 79.8-22.111 26.055 2.896 51.489 16.907 71.522 39.445a31.97 31.97 0 0 0 24.344 10.737c29.659-0.395 59.987-0.152 89.317 0.082 44.625 0.357 90.768 0.727 136.535-1.104a31.997 31.997 0 0 0 26.505-16.099c1.038-1.817 4.809-5.096 8.609-8.353 2.577-1.742 4.798-3.297 6.957-4.808a410.878 410.878 0 0 1 6.573-4.537c16.399-9.371 35.342-14.257 61.247-15.815 17.641-1.062 31.082-16.223 30.021-33.864-1.062-17.64-16.192-31.073-33.864-30.021-36.36 2.188-65.102 10.094-90.451 24.881a31.319 31.319 0 0 0-1.626 1.015c-3.303 2.202-5.996 4.087-8.601 5.91-2.418 1.693-4.702 3.292-7.399 5.09a31.792 31.792 0 0 0-3.075 2.33l-0.768 0.657c-3.612 3.094-7.448 6.379-11.184 10.17-39.605 1.185-79.878 0.861-118.968 0.55-25.134-0.2-50.994-0.407-76.76-0.221-28.954-28.036-64.668-45.521-101.962-49.665a181.059 181.059 0 0 0-19.451-1.059zM533.688 292.71799999999996c-9.26 0-18.463 0.021-27.596 0.042-15.518 0.037-31.564 0.073-47.336 0.004h-0.142c-17.609-0.002-31.92 14.234-31.997 31.861-0.077 17.673 14.188 32.062 31.86 32.139 15.987 0.068 32.141 0.032 47.762-0.004 37.351-0.086 75.972-0.175 113.576 1.219 17.66 0.639 32.509-13.133 33.163-30.794 0.653-17.661-13.133-32.509-30.794-33.163-29.513-1.093-59.262-1.304-88.496-1.304zM425.305 292.341c-9.584 0-19.516 0.433-30.052 2.013a37.27 37.27 0 0 0-1.15 0.194c-24.078 4.515-45.405 18.273-60.069 38.75-12.494 17.247-15.359 35.868-17.662 50.836a32.002 32.002 0 0 0 0.583 12.627c2.519 10.077 4.533 20.537 6.665 31.61 4.415 22.93 8.98 46.64 18.702 70.598 8.601 21.434 25.939 38.733 50.145 50.029 16.016 7.472 35.057 0.549 42.53-15.466 7.474-16.015 0.549-35.056-15.466-42.53-9.091-4.242-15.42-9.884-17.821-15.887l-0.064-0.159c-7.379-18.163-11.168-37.846-15.181-58.685-1.797-9.336-3.645-18.932-5.866-28.552 1.202-7.172 2.586-13.195 5.279-16.898 0.054-0.073 0.107-0.147 0.16-0.222 5.046-7.065 11.552-11.452 19.342-13.047 11.187-1.601 22.96-1.266 35.412-0.914 5.821 0.166 11.833 0.329 18.083 0.324 17.673-0.033 31.973-14.387 31.94-32.06-0.033-17.674-14.369-31.945-32.06-31.94-5.287 0.005-10.558-0.14-16.149-0.298-5.673-0.16-11.422-0.323-17.301-0.323zM279.14 193.09699999999998c-31.111 0.974-57.123-23.464-58.095-54.576v-0.003c-0.97-31.115 23.465-57.126 54.579-58.096h3.517c31.117 0.97 55.552 26.979 54.582 58.092v0.004c-0.93 29.75-24.829 53.65-54.583 54.579M745.116 193.09699999999998c-31.114 0.974-57.122-23.464-58.096-54.576v-0.003c-1-31.085 23.391-57.094 54.476-58.094 0.035-0.002 0.071-0.002 0.104-0.002h3.517c31.113 0.97 55.552 26.979 54.583 58.092v0.004c-0.929 29.75-24.835 53.65-54.584 54.579M731.975 375.56100000000004c-60.223 0-116.853 23.449-159.459 66.027-42.633 42.604-66.111 99.266-66.111 159.545 0 60.296 23.451 116.954 66.034 159.537 42.582 42.583 99.24 66.034 159.536 66.034 60.224 0 116.854-23.449 159.461-66.026 42.633-42.604 66.112-99.265 66.112-159.545 0-60.223-23.449-116.854-66.027-159.461-42.605-42.632-99.266-66.111-159.546-66.111z m0 387.144c-89.09 0-161.57-72.48-161.57-161.571s72.48-161.573 161.57-161.573c89.092 0 161.573 72.481 161.573 161.573 0 89.09-72.482 161.571-161.573 161.571zM705.39 546.461c-17.569 0-31.813 14.243-31.813 31.813v63.719c0 17.568 14.244 31.812 31.813 31.812 17.57 0 31.813-14.243 31.813-31.812l-0.001-63.719c-0.001-17.57-14.243-31.813-31.812-31.813zM673.577 578.273c0 17.569 14.243 31.813 31.813 31.813h63.719c17.568 0 31.812-14.244 31.812-31.813 0-17.57-14.243-31.813-31.812-31.813l-63.719 0.001c-17.57 0.001-31.813 14.243-31.813 31.812z"  horiz-adv-x="1024" />

    
    <glyph glyph-name="shui" unicode="&#59291;" d="M515.584 833.536S186.368 529.408 180.736 276.992c-5.632-252.416 222.72-343.04 334.848-343.04 138.24 0 329.216 103.424 327.68 357.376-1.536 254.464-327.68 542.208-327.68 542.208z m64-792.064c-15.872-6.656-34.304 5.632-40.96 26.624-7.168 21.504 0 44.032 15.872 50.176h0.512c79.872 33.28 132.608 117.248 146.432 218.112 1.536 12.8 8.192 23.552 18.432 27.648 15.872 6.656 34.304-5.632 40.96-26.624 2.56-8.704 3.072-16.896 2.048-25.088-17.92-124.928-83.456-229.888-183.296-270.848z"  horiz-adv-x="1024" />

    
    <glyph glyph-name="mima" unicode="&#58927;" d="M760.1-64H263.9c-60.9 0-110.3 52.2-110.3 116.6V401.9c0 64.2 49.4 116.5 110.3 116.5h23.9c0 14 0.1 29.3 0.2 44.8V608c0 123.7 100.3 224 224 224s224-100.3 224-224v-89.6h24.1c60.8 0 110.3-52.2 110.3-116.5v-349.4c0-64.3-49.5-116.5-110.3-116.5zM467.2 217v-101.9c0-24.7 20.1-44.8 44.8-44.8 24.7 0 44.8 20.1 44.8 44.8V217c27.2 15.4 45.7 44.1 45.7 77.4 0 49.5-40.5 89.6-90.5 89.6s-90.5-40.1-90.5-89.6c0-33.3 18.5-62 45.7-77.4z m179.2 391c0 74.2-60.2 134.4-134.4 134.4S377.6 682.2 377.6 608v-89.6h268.8V608z"  horiz-adv-x="1024" />

    
    <glyph glyph-name="yonghuming" unicode="&#58928;" d="M619.2 285.2C839.8 249 903.3 91.6 903.3 34.3c0-78.3-269.5-96.9-391.3-96.9-121.8 0-391.3 18.6-391.3 96.9 0 56.2 62.7 216.7 283.3 250.7 14.1 2.2 32.7 47.7 20.6 56-72.3 50-127.8 136.5-127.8 276-0.1 119 89.3 213.5 215.2 213.5 125.9 0 215.3-94.5 215.3-213.4 0-137.5-58.5-226-131-276.5-11.2-7.8 9.1-53.2 22.9-55.4z m0 0"  horiz-adv-x="1024" />

    
    <glyph glyph-name="yanzhengma" unicode="&#58929;" d="M904.4 692.9c-2.2 0-222.6 22.4-376.3 133.5-10 7.2-23.5 7.2-33.4 0-153.7-110.8-374-133.2-376.3-133.5-14.5-1.4-25.5-13.5-25.6-28 2.6-105.7 19.5-210.6 50-311.9 25.3-87.8 66.1-170.4 120.5-243.9 60-80.7 143.7-140.7 239.4-171.6 5.6-1.8 11.7-1.8 17.3 0a483.45 483.45 0 0 1 240.5 171.6C815 182.60000000000002 855.8 265.20000000000005 881.1 353c30.6 101.3 47.4 206.2 50 311.9 0 14.5-11.1 26.7-25.6 28h-1.1zM695.3 487.4L519 257.9c-4.7-6.2-11.8-10.1-19.5-11h-2.9c-6.7 0-13.3 2.4-18.4 6.7l-102.5 87.1c-11.8 10-13.3 27.7-3.3 39.5l0.2 0.2c10.3 11.5 27.9 12.7 39.7 2.7l79.2-67.3 158.2 206c9.5 12.4 27.2 14.8 39.7 5.4 12.4-9.3 14.9-26.9 5.5-39.3l-0.2-0.2 0.6-0.3z"  horiz-adv-x="1024" />

    
    <glyph glyph-name="wuyepaidan" unicode="&#58930;" d="M637.856 438.08a33.504 33.504 0 0 1-33.44 33.44H294.816a33.504 33.504 0 0 1-33.472-33.44 33.504 33.504 0 0 1 33.472-33.44h309.6a33.504 33.504 0 0 1 33.44 33.44M746.816 647.424a33.504 33.504 0 0 1-33.472 33.44H294.72a33.504 33.504 0 0 1-33.472-33.44A33.504 33.504 0 0 1 294.72 613.952h418.624a33.504 33.504 0 0 1 33.472 33.472M919.2 294.144l-144.832 144.832a35.968 35.968 0 0 1-25.408 10.784 36.064 36.064 0 0 1-25.6-10.784 35.2 35.2 0 0 1 0-50.848l83.2-83.2h-260.48a34.72 34.72 0 0 1-36.256-36.288 34.688 34.688 0 0 1 36.256-36.256h260.48l-83.2-83.2a38.4 38.4 0 0 1-10.816-25.6 38.4 38.4 0 0 1 10.816-25.6 35.936 35.936 0 0 1 25.44-10.816 36 36 0 0 1 25.6 10.816l144.832 144.864a35.2 35.2 0 0 1 0 50.88M294.816 262.24a33.504 33.504 0 0 1-33.472-33.472 33.504 33.504 0 0 1 33.472-33.44h78.496a33.504 33.504 0 0 1 33.44 33.44 33.504 33.504 0 0 1-33.472 33.472zM671.264 79.072H210.784c-6.4 0-13.44 8.832-13.44 20.672V776.416c0 11.84 7.104 20.672 13.44 20.672h586.432c6.4 0 13.472-8.832 13.472-20.672v-288.576A33.504 33.504 0 0 1 844.16 454.4a33.504 33.504 0 0 1 33.472 33.44V776.416A84.32 84.32 0 0 1 797.248 864H210.816a84.32 84.32 0 0 1-80.352-87.584v-676.672a84.288 84.288 0 0 1 80.352-87.552h460.48a33.504 33.504 0 0 1 33.44 33.472 33.504 33.504 0 0 1-33.44 33.44M859.616-29.088l-682.624 0.768a95.744 95.744 0 0 0-78.08 87.328V617.568a33.504 33.504 0 0 1-33.44 33.44A33.504 33.504 0 0 1 32.032 617.568v-563.744a161.792 161.792 0 0 1 54.656-110.752 149.664 149.664 0 0 1 85.408-38.4h0.192l687.36-0.768a33.504 33.504 0 0 1 33.312 33.536 33.504 33.504 0 0 1-33.44 33.472"  horiz-adv-x="1024" />

    


  </font>
</defs>
</svg>
